The Sunset Limited (2011) 1080p MKV x264 AC3+DTS Eng NL Subs
.
[IMG]http://img201.imageshack.us/img201/7678/thesunsetlimited2011blu.png[/IMG]
.
Verenigde Staten
Drama
91 minuten

geregisseerd door Tommy Lee Jones
met Tommy Lee Jones en Samuel L. Jackson

Gesitueerd in een New York's huurappartement richt het verhaal zich op twee zeer verschillende mannen. De zwaar religieuze zwarte ex-gevangene (Samuel L. Jackson) dwarsboomt de zelfmoordpoging van een asociale blanke professor (Tommy Lee Jones) die zichzelf voor de aanstormende metrotrein 'The Sunset Limited' probeerde te gooien. Terwijl de ene man contact probeert te maken op een rationeel, spiritueel en emotioneel niveau, blijft de andere standvastig in zijn zuurverdiende wanhoop steken. Opgesloten in een filosofisch debat verdedigen beide mannen hun persoonlijke credo en proberen ze de ander daarvan te overtuigen.
. 
http://www.moviemeter.nl/film/73248
.
Two men in an apartment with their opposing beliefs. 
. 
http://www.imdb.com/title/tt1510938/
.
INFO
.
Format                           : Matroska
Format version                   : Version 2
File size                        : 11.3 GiB
Duration                         : 1h 30mn
Overall bit rate                 : 17.8 Mbps
Movie name                       : The Sunset Limited 2011
Encoded date                     : UTC 2012-02-07 21:56:10
Writing application              : mkvmerge v5.2.0 ('I can't explain') built on Dec 18 2011 18:12:03
Writing library                  : libebml v1.2.3 + libmatroska v1.3.0

Video
ID                               : 1
Format                           : AVC
Format/Info                      : Advanced Video Codec
Format profile                   : High@L4.1
Format settings, CABAC           : Yes
Format settings, ReFrames        : 4 frames
Codec ID                         : V_MPEG4/ISO/AVC
Duration                         : 1h 30mn
Bit rate                         : 15.6 Mbps
Width                            : 1 920 pixels
Height                           : 1 080 pixels
Display aspect ratio             : 16:9
Frame rate                       : 23.976 fps
Color space                      : YUV
Chroma subsampling               : 4:2:0
Bit depth                        : 8 bits
Scan type                        : Progressive
Bits/(Pixel*Frame)               : 0.314
Stream size                      : 9.69 GiB (86%)
Writing library                  : x264 core 119 r2106 07efeb4
Encoding settings                : cabac=1 / ref=4 / deblock=1:-3:-3 / analyse=0x3:0x113 / me=umh / subme=10 / psy=1 / psy_rd=1.00:0.00 / mixed_ref=1 / me_range=64 / chroma_me=1 / trellis=2 / 8x8dct=1 / cqm=0 / deadzone=21,11 / fast_pskip=0 / chroma_qp_offset=-2 / threads=6 / sliced_threads=0 / nr=0 / decimate=1 / interlaced=0 / bluray_compat=0 / constrained_intra=0 / bframes=8 / b_pyramid=2 / b_adapt=2 / b_bias=0 / direct=3 / weightb=1 / open_gop=0 / weightp=2 / keyint=250 / keyint_min=23 / scenecut=40 / intra_refresh=0 / rc_lookahead=250 / rc=2pass / mbtree=1 / bitrate=15610 / ratetol=1.0 / qcomp=0.70 / qpmin=10 / qpmax=51 / qpstep=4 / cplxblur=20.0 / qblur=0.5 / vbv_maxrate=38000 / vbv_bufsize=30000 / nal_hrd=none / ip_ratio=1.40 / aq=1:0.80
Default                          : Yes
Forced                           : No

Audio #1
ID                               : 2
Format                           : DTS
Format/Info                      : Digital Theater Systems
Codec ID                         : A_DTS
Duration                         : 1h 30mn
Bit rate mode                    : Constant
Bit rate                         : 1 510 Kbps
Channel(s)                       : 6 channels
Channel positions                : Front: L C R, Side: L R, LFE
Sampling rate                    : 48.0 KHz
Bit depth                        : 24 bits
Compression mode                 : Lossy
Stream size                      : 982 MiB (8%)
Title                            : DTS
Language                         : English
Default                          : Yes
Forced                           : No

Audio #2
ID                               : 3
Format                           : AC-3
Format/Info                      : Audio Coding 3
Mode extension                   : CM (complete main)
Codec ID                         : A_AC3
Duration                         : 1h 30mn
Bit rate mode                    : Constant
Bit rate                         : 640 Kbps
Channel(s)                       : 6 channels
Channel positions                : Front: L C R, Side: L R, LFE
Sampling rate                    : 48.0 KHz
Bit depth                        : 16 bits
Compression mode                 : Lossy
Stream size                      : 416 MiB (4%)
Title                            : AC3
Language                         : English
Default                          : No
Forced                           : No

Text #1
ID                               : 4
Format                           : UTF-8
Codec ID                         : S_TEXT/UTF8
Codec ID/Info                    : UTF-8 Plain Text
Language                         : Dutch
Default                          : No
Forced                           : No

Text #2
ID                               : 5
Format                           : UTF-8
Codec ID                         : S_TEXT/UTF8
Codec ID/Info                    : UTF-8 Plain Text
Language                         : English
Default                          : No
Forced                           : No


